<svg xmlns="http://www.w3.org/2000/svg"><style>:root svg:not(:target){display:none}</style>

<svg id="icon-close-copy"><line y1="-0.75" x2="24.7577" y2="-0.75" transform="matrix(0.686589 -0.727046 0.686589 0.727046 2.00171 20)" stroke-width="1.5" ></line><line y1="-0.75" x2="24.7577" y2="-0.75" transform="matrix(0.686589 0.727046 -0.686589 0.727046 1 2)" stroke-width="1.5" ></line></svg>

<svg id="icon-close"><line y1="-0.75" x2="24.7577" y2="-0.75" transform="matrix(0.686589 -0.727046 0.686589 0.727046 2.00171 20)" stroke="black" stroke-width="1.5"></line><line y1="-0.75" x2="24.7577" y2="-0.75" transform="matrix(0.686589 0.727046 -0.686589 0.727046 1 2)" stroke="black" stroke-width="1.5"></line></svg>

<svg id="svg-bell"><path d="M16 7C16 5.4087 15.3679 3.88258 14.2426 2.75736C13.1174 1.63214 11.5913 1 10 1C8.4087 1 6.88258 1.63214 5.75736 2.75736C4.63214 3.88258 4 5.4087 4 7C4 12.7489 1.97652 15.1254 1.25323 15.7912C1.18043 15.8582 1.23134 16 1.33028 16H18.6697C18.7687 16 18.8196 15.8582 18.7468 15.7912C18.0235 15.1254 16 12.7489 16 7Z" stroke-width="2" stroke-linecap="round" stroke-linejoin="round"/></svg>

<svg id='svg-search'><path d="M21 11.5a8.38 8.38 0 0 1-.9 3.8 8.5 8.5 0 0 1-7.6 4.7 8.379 8.379 0 0 1-3.8-.9L3 21l1.9-5.7a8.38 8.38 0 0 1-.9-3.8 8.5 8.5 0 0 1 4.7-7.6 8.38 8.38 0 0 1 3.8-.9h.5a8.48 8.48 0 0 1 8 8v.5Z" stroke-width="2" stroke-linecap="round" stroke-linejoin="round"/></svg>
</svg>

