<svg xmlns="http://www.w3.org/2000/svg"><style>:root svg:not(:target){display:none}</style>

<svg id="icon-close-copy"><line y1="-0.75" x2="24.7577" y2="-0.75" transform="matrix(0.686589 -0.727046 0.686589 0.727046 2.00171 20)" stroke-width="1.5" ></line><line y1="-0.75" x2="24.7577" y2="-0.75" transform="matrix(0.686589 0.727046 -0.686589 0.727046 1 2)" stroke-width="1.5" ></line></svg>

<svg id="icon-close"><line y1="-0.75" x2="24.7577" y2="-0.75" transform="matrix(0.686589 -0.727046 0.686589 0.727046 2.00171 20)" stroke="black" stroke-width="1.5"></line><line y1="-0.75" x2="24.7577" y2="-0.75" transform="matrix(0.686589 0.727046 -0.686589 0.727046 1 2)" stroke="black" stroke-width="1.5"></line></svg>

<svg id="svg-bell"><path d="M16 7C16 5.4087 15.3679 3.88258 14.2426 2.75736C13.1174 1.63214 11.5913 1 10 1C8.4087 1 6.88258 1.63214 5.75736 2.75736C4.63214 3.88258 4 5.4087 4 7C4 12.7489 1.97652 15.1254 1.25323 15.7912C1.18043 15.8582 1.23134 16 1.33028 16H18.6697C18.7687 16 18.8196 15.8582 18.7468 15.7912C18.0235 15.1254 16 12.7489 16 7Z" stroke-width="2" stroke-linecap="round" stroke-linejoin="round"/></svg>

<svg id='svg-search'><path d="M21 11.5a8.38 8.38 0 0 1-.9 3.8 8.5 8.5 0 0 1-7.6 4.7 8.379 8.379 0 0 1-3.8-.9L3 21l1.9-5.7a8.38 8.38 0 0 1-.9-3.8 8.5 8.5 0 0 1 4.7-7.6 8.38 8.38 0 0 1 3.8-.9h.5a8.48 8.48 0 0 1 8 8v.5Z" stroke-width="2" stroke-linecap="round" stroke-linejoin="round"/></svg>

<svg width="25" height="25" fill="red" style="vertical-align:middle" viewBox="0 0 1024 1024" xmlns="http://www.w3.org/2000/svg" overflow="hidden"><path d="M512 896a42.667 42.667 0 01-30.293-12.373L150.187 551.68a224.427 224.427 0 010-315.733 223.573 223.573 0 01315.733 0l46.08 46.08 46.08-46.08a223.573 223.573 0 01315.733 0 224.427 224.427 0 010 315.733l-331.52 331.947A42.667 42.667 0 01512 896z"/></svg>

<svg id='svg-basket'  fill="none" ><path d="M14.166 18a1 1 0 001-1v-2a1 1 0 10-2 0v2a1 1 0 001 1zm-4 0a1 1 0 001-1v-2a1 1 0 10-2 0v2a1 1 0 001 1zm9-12h-1.38l-1.73-3.45a.999.999 0 10-1.78.9L15.546 6h-6.76l1.27-2.55a1 1 0 00-1.78-.9L6.547 6h-1.38a3 3 0 00-.92 5.84l.74 7.46a3 3 0 003 2.7h8.38a3 3 0 003-2.7l.74-7.46a3 3 0 00-.94-5.84zm-1.81 13.1a1 1 0 01-1 .9h-8.38a1 1 0 01-1-.9l-.71-7.1h11.8l-.71 7.1zm1.81-9.1h-14a1 1 0 110-2h14a1 1 0 110 2z" fill="#fff"/></svg>