<svg width="25" height="24" fill="none" xmlns="http://www.w3.org/2000/svg"><path d="M14.166 18a1 1 0 001-1v-2a1 1 0 10-2 0v2a1 1 0 001 1zm-4 0a1 1 0 001-1v-2a1 1 0 10-2 0v2a1 1 0 001 1zm9-12h-1.38l-1.73-3.45a.999.999 0 10-1.78.9L15.546 6h-6.76l1.27-2.55a1 1 0 00-1.78-.9L6.547 6h-1.38a3 3 0 00-.92 5.84l.74 7.46a3 3 0 003 2.7h8.38a3 3 0 003-2.7l.74-7.46a3 3 0 00-.94-5.84zm-1.81 13.1a1 1 0 01-1 .9h-8.38a1 1 0 01-1-.9l-.71-7.1h11.8l-.71 7.1zm1.81-9.1h-14a1 1 0 110-2h14a1 1 0 110 2z" fill="#fff"/></svg>