<svg width="25" height="24" viewBox="0 0 25 24" fill="none" xmlns="http://www.w3.org/2000/svg">
<path d="M14.1665 17.9999C14.4318 17.9999 14.6861 17.8945 14.8736 17.707C15.0612 17.5195 15.1665 17.2651 15.1665 16.9999V14.9999C15.1665 14.7347 15.0612 14.4803 14.8736 14.2928C14.6861 14.1053 14.4318 13.9999 14.1665 13.9999C13.9013 13.9999 13.647 14.1053 13.4594 14.2928C13.2719 14.4803 13.1665 14.7347 13.1665 14.9999V16.9999C13.1665 17.2651 13.2719 17.5195 13.4594 17.707C13.647 17.8945 13.9013 17.9999 14.1665 17.9999ZM10.1665 17.9999C10.4318 17.9999 10.6861 17.8945 10.8736 17.707C11.0612 17.5195 11.1665 17.2651 11.1665 16.9999V14.9999C11.1665 14.7347 11.0612 14.4803 10.8736 14.2928C10.6861 14.1053 10.4318 13.9999 10.1665 13.9999C9.90132 13.9999 9.64697 14.1053 9.45943 14.2928C9.2719 14.4803 9.16654 14.7347 9.16654 14.9999V16.9999C9.16654 17.2651 9.2719 17.5195 9.45943 17.707C9.64697 17.8945 9.90132 17.9999 10.1665 17.9999ZM19.1665 5.99991H17.7865L16.0565 2.5499C16.0037 2.42296 15.9252 2.30828 15.826 2.21303C15.7268 2.11779 15.6091 2.04402 15.4801 1.99635C15.3511 1.94867 15.2137 1.92811 15.0764 1.93595C14.9391 1.94379 14.8049 1.97986 14.6822 2.04191C14.5594 2.10396 14.4508 2.19065 14.3631 2.29657C14.2754 2.40249 14.2105 2.52536 14.1725 2.6575C14.1344 2.78964 14.124 2.92821 14.1419 3.06455C14.1598 3.20089 14.2056 3.33208 14.2765 3.44991L15.5465 5.99991H8.78654L10.0565 3.44991C10.1536 3.21681 10.1589 2.95563 10.0714 2.71879C9.98382 2.48196 9.80993 2.287 9.5846 2.17307C9.35927 2.05914 9.09918 2.03467 8.85656 2.10456C8.61393 2.17446 8.40672 2.33356 8.27654 2.5499L6.54654 5.99991H5.16654C4.45973 6.01066 3.77942 6.27065 3.24559 6.73404C2.71176 7.19742 2.35871 7.83443 2.24871 8.53271C2.13871 9.23099 2.27882 9.94569 2.64433 10.5508C3.00984 11.1558 3.57727 11.6124 4.24654 11.8399L4.98654 19.2999C5.06116 20.0425 5.40988 20.7306 5.96461 21.2298C6.51934 21.7291 7.24024 22.0036 7.98654 21.9999H16.3665C17.1128 22.0036 17.8337 21.7291 18.3885 21.2298C18.9432 20.7306 19.2919 20.0425 19.3665 19.2999L20.1065 11.8399C20.7773 11.6117 21.3456 11.1535 21.7108 10.5464C22.0761 9.9393 22.2147 9.22254 22.1021 8.52305C21.9895 7.82356 21.633 7.18649 21.0957 6.72468C20.5584 6.26287 19.875 6.00612 19.1665 5.99991ZM17.3565 19.0999C17.3317 19.3474 17.2154 19.5768 17.0305 19.7432C16.8456 19.9096 16.6053 20.0012 16.3565 19.9999H7.97654C7.72777 20.0012 7.48747 19.9096 7.30256 19.7432C7.11766 19.5768 7.00141 19.3474 6.97654 19.0999L6.26654 11.9999H18.0665L17.3565 19.0999ZM19.1665 9.9999H5.16654C4.90132 9.9999 4.64697 9.89455 4.45943 9.70701C4.2719 9.51948 4.16654 9.26512 4.16654 8.99991C4.16654 8.73469 4.2719 8.48033 4.45943 8.2928C4.64697 8.10526 4.90132 7.99991 5.16654 7.99991H19.1665C19.4318 7.99991 19.6861 8.10526 19.8736 8.2928C20.0612 8.48033 20.1665 8.73469 20.1665 8.99991C20.1665 9.26512 20.0612 9.51948 19.8736 9.70701C19.6861 9.89455 19.4318 9.9999 19.1665 9.9999Z" fill="white"/>
</svg>
